<svg width="205" height="105" viewBox="0 0 205 105" fill="none" xmlns="http://www.w3.org/2000/svg">
<g filter="url(#filter0_f_2220_68)">
<path d="M47.5036 47.2477V44.8936C47.7328 44.8768 47.9634 44.8655 48.1983 44.8571C54.6347 44.656 58.8591 50.3893 58.8591 50.3893C58.8591 50.3893 54.2972 56.7188 49.4062 56.7188C48.7596 56.7219 48.1168 56.6188 47.5036 56.4136V49.2825C50.0095 49.5849 50.513 50.6888 52.0205 53.2032L55.3716 50.378C54.567 49.4074 53.565 48.6194 52.4322 48.0663C51.2993 47.5132 50.0617 47.2078 48.8016 47.1703C48.3678 47.1729 47.9346 47.1987 47.5036 47.2477ZM47.5036 39.4725V42.9882C47.7342 42.9699 47.9663 42.9544 48.1983 42.946C57.1505 42.645 62.9822 50.288 62.9822 50.288C62.9822 50.288 56.2828 58.433 49.305 58.433C48.7011 58.4329 48.0984 58.3802 47.5036 58.2755V60.4482C48.0012 60.5119 48.5024 60.5443 49.0041 60.5452C55.4981 60.5452 60.195 57.2293 64.7428 53.303C65.4952 53.9077 68.5833 55.3758 69.2175 56.0199C64.8933 59.6396 54.8161 62.5575 49.1081 62.5575C48.5569 62.5575 48.0267 62.5238 47.5078 62.4732V65.5275H72.1875V39.4725H47.5036ZM47.5036 56.4193V58.2755C41.4975 57.2039 39.8297 50.963 39.8297 50.963C41.897 48.8972 44.6007 47.5892 47.5036 47.2505V49.2853H47.4952C46.644 49.2749 45.801 49.4531 45.0269 49.8071C44.2527 50.1611 43.5666 50.6822 43.0177 51.3328C43.0177 51.3328 44.1173 55.2858 47.5036 56.4235M36.8358 50.6902C38.1062 49.028 39.713 47.6526 41.5513 46.6538C43.3895 45.6549 45.4178 45.0552 47.5036 44.8936V42.9882C39.63 43.6196 32.8125 50.288 32.8125 50.288C32.8125 50.288 36.6741 61.4522 47.5036 62.4732V60.4482C39.5625 59.4483 36.8358 50.6902 36.8358 50.6902Z" fill="#80BC00"/>
<path d="M109.471 41.1818V63H105.956L95.6752 48.1385H95.4941V63H91.5416V41.1818H95.0786L105.348 56.054H105.54V41.1818H109.471ZM116.697 41.1818L122.375 58.3551H122.599L128.267 41.1818H132.613L124.921 63H120.042L112.361 41.1818H116.697ZM142.88 63H135.487V41.1818H143.03C145.196 41.1818 147.057 41.6186 148.612 42.4922C150.174 43.3587 151.375 44.6051 152.213 46.2315C153.051 47.858 153.47 49.804 153.47 52.0696C153.47 54.3423 153.047 56.2955 152.202 57.929C151.364 59.5625 150.153 60.8161 148.569 61.6896C146.993 62.5632 145.096 63 142.88 63ZM139.439 59.5803H142.689C144.209 59.5803 145.476 59.3033 146.492 58.7493C147.508 58.1882 148.271 57.3537 148.782 56.2457C149.294 55.1307 149.549 53.7386 149.549 52.0696C149.549 50.4006 149.294 49.0156 148.782 47.9148C148.271 46.8068 147.515 45.9794 146.513 45.4325C145.519 44.8786 144.283 44.6016 142.806 44.6016H139.439V59.5803ZM158.855 63H154.636L162.318 41.1818H167.197L174.889 63H170.67L164.842 45.6562H164.672L158.855 63ZM158.994 54.4453H170.499V57.62H158.994V54.4453Z" fill="black"/>
</g>
<defs>
<filter id="filter0_f_2220_68" x="0" y="0" width="206" height="105" filterUnits="userSpaceOnUse" color-interpolation-filters="sRGB">
<feFlood flood-opacity="0" result="BackgroundImageFix"/>
<feBlend mode="normal" in="SourceGraphic" in2="BackgroundImageFix" result="shape"/>
<feGaussianBlur stdDeviation="15" result="effect1_foregroundBlur_2220_68"/>
</filter>
</defs>
</svg>
