<svg width="38" height="31" viewBox="0 0 38 31" fill="none" xmlns="http://www.w3.org/2000/svg">
<path d="M15.6416 23.1073C15.8274 23.3671 15.9992 23.6298 16.1528 23.8968C19.0901 18.7931 28.3058 15.1715 28.3058 7.07629C28.3058 5.43698 27.6565 3.94941 26.6011 2.85645C27.3138 3.852 27.7334 5.07171 27.7334 6.38936C27.7334 14.43 18.6424 18.0575 15.6416 23.1073Z" fill="#FA7876"/>
<g filter="url(#filter0_d_2220_134)">
<path d="M16.1531 7.0764C16.1531 3.72058 13.4323 1 10.0765 1C6.72058 1 4 3.72058 4 7.0764C4 15.1715 13.2157 18.7932 16.1531 23.8969C19.0905 18.7932 28.3061 15.1716 28.3061 7.0764C28.3061 3.72058 25.5855 1 22.2297 1C18.8737 1 16.1531 3.72058 16.1531 7.0764Z" fill="url(#paint0_linear_2220_134)"/>
</g>
<path d="M8.40546 16.057C6.41487 16.3791 1.46628 17.8212 4.00754 20.4522C6.95073 23.4993 18.3766 17.5258 21.8795 15.5249C25.3824 13.5239 27.5206 12.262 29.3791 11.0242C32.3823 9.02379 33.9095 8.01795 33.8825 8.02396L32.8823 7.02394C32.9138 7.01691 32.2384 7.78458 28.8828 10.0239C25.8862 12.0237 23.3828 13.5239 19.4496 15.5249C14.1421 18.2249 6.47317 21.3009 5.07601 19.7819C3.34097 17.6615 9.0763 17.0276 9.38238 16.9953L9.36677 16.981L9.36272 16.9776L9.31956 16.9382L9.30386 16.924L9.28815 16.9097L9.27242 16.8952L9.20984 16.8379L9.19422 16.8235L9.17867 16.8091L9.17685 16.8076L9.16313 16.7946L9.1475 16.7802L9.13993 16.7732L9.13205 16.7658L9.11651 16.7514L9.05449 16.6934L9.03911 16.6788L9.0297 16.6702L9.02366 16.6644L9.00828 16.6499L8.99313 16.6357L8.93139 16.577L8.9203 16.5665L8.9161 16.5623L8.90082 16.5478L8.88553 16.5332L8.80938 16.4597L8.79416 16.4449L8.77904 16.4302L8.77574 16.4272L8.76391 16.4154L8.74879 16.4007L8.74 16.3921L8.73373 16.3858L8.71861 16.371L8.70417 16.3569L8.68861 16.3414L8.64348 16.2969L8.63283 16.2865L8.62842 16.282L8.61347 16.2671L8.59857 16.252L8.59751 16.2511L8.58371 16.2372L8.56874 16.2222L8.5621 16.2157L8.55377 16.2073L8.53889 16.1923L8.52684 16.1801L8.52419 16.1773L8.5093 16.1623L8.47962 16.1322L8.46483 16.1173L8.45651 16.1088L8.45013 16.1022L8.43531 16.087L8.40546 16.057Z" fill="url(#paint1_linear_2220_134)"/>
<path d="M32.5172 8.15562L30.1507 6.19725L36.6447 4.45341L34.1228 10.7743L32.5172 8.15562Z" fill="#2360A7"/>
<path d="M36.0006 4.62646L36.6448 4.45344L34.1229 10.7743L33.7744 10.2061L36.0006 4.62646Z" fill="#2360A7"/>
<defs>
<filter id="filter0_d_2220_134" x="0" y="0" width="32.3057" height="30.897" filterUnits="userSpaceOnUse" color-interpolation-filters="sRGB">
<feFlood flood-opacity="0" result="BackgroundImageFix"/>
<feColorMatrix in="SourceAlpha" type="matrix" values="0 0 0 0 0 0 0 0 0 0 0 0 0 0 0 0 0 0 127 0" result="hardAlpha"/>
<feOffset dy="3"/>
<feGaussianBlur stdDeviation="2"/>
<feComposite in2="hardAlpha" operator="out"/>
<feColorMatrix type="matrix" values="0 0 0 0 0.290196 0 0 0 0 0.564706 0 0 0 0 0.886275 0 0 0 0.5 0"/>
<feBlend mode="normal" in2="BackgroundImageFix" result="effect1_dropShadow_2220_134"/>
<feBlend mode="normal" in="SourceGraphic" in2="effect1_dropShadow_2220_134" result="shape"/>
</filter>
<linearGradient id="paint0_linear_2220_134" x1="16.1531" y1="1" x2="16.1531" y2="23.8969" gradientUnits="userSpaceOnUse">
<stop stop-color="#4A90E2"/>
<stop offset="1" stop-color="#143862"/>
</linearGradient>
<linearGradient id="paint1_linear_2220_134" x1="33.9551" y1="6.94836" x2="7.95508" y2="22.4484" gradientUnits="userSpaceOnUse">
<stop stop-color="#2360A7"/>
<stop offset="1" stop-color="#94C5FF"/>
</linearGradient>
</defs>
</svg>
