<svg width="328" height="38" viewBox="0 0 328 38" fill="none" xmlns="http://www.w3.org/2000/svg">
<path d="M19.252 29.9657C19.4953 30.3061 19.7204 30.6503 19.9216 31.0001C23.77 24.3131 35.8437 19.568 35.8437 8.96154C35.8437 6.81368 34.993 4.86464 33.6103 3.43262C34.544 4.73701 35.0938 6.3351 35.0938 8.06152C35.0938 18.5965 23.1834 23.3493 19.252 29.9657Z" fill="#FA7876"/>
<g filter="url(#filter0_d_2220_30)">
<path d="M19.9221 8.96142C19.9221 4.56455 16.3575 1 11.961 1C7.5643 1 4 4.56455 4 8.96142C4 19.5677 16.0737 24.313 19.9221 31C23.7704 24.313 35.8441 19.5679 35.8441 8.96142C35.8441 4.56455 32.2797 1 27.8831 1C23.4865 1 19.9221 4.56455 19.9221 8.96142Z" fill="url(#paint0_linear_2220_30)"/>
</g>
<path d="M9.77157 20.7283C7.16378 21.1503 0.68082 23.0397 4.01001 26.4869C7.86576 30.4793 22.8344 22.6527 27.4234 20.031C32.0124 17.4094 34.8136 15.756 37.2482 14.1341C41.1826 11.5132 43.1834 10.1954 43.148 10.2032L41.8377 8.893C41.879 8.88378 40.9941 9.88959 36.5981 12.8236C32.6724 15.4438 29.3928 17.4094 24.2401 20.031C17.2869 23.5687 7.24014 27.5989 5.40978 25.6087C3.13678 22.8305 10.6504 21.9999 11.0514 21.9576L11.0309 21.939L11.0256 21.9344L10.9691 21.8829L10.9485 21.8642L10.9279 21.8455L10.9073 21.8265L10.8253 21.7514L10.8049 21.7326L10.7845 21.7137L10.7821 21.7117L10.7642 21.6947L10.7437 21.6758L10.7338 21.6667L10.7234 21.6569L10.7031 21.6381L10.6218 21.5621L10.6017 21.543L10.5894 21.5317L10.5814 21.5241L10.5613 21.5051L10.5414 21.4866L10.4606 21.4096L10.446 21.3958L10.4405 21.3904L10.4205 21.3713L10.4005 21.3523L10.3007 21.2559L10.2808 21.2365L10.261 21.2172L10.2567 21.2133L10.2412 21.1979L10.2213 21.1786L10.2098 21.1673L10.2016 21.159L10.1818 21.1397L10.1629 21.1213L10.1425 21.101L10.0834 21.0426L10.0694 21.029L10.0637 21.0231L10.0441 21.0036L10.0246 20.9838L10.0232 20.9826L10.0051 20.9643L9.98547 20.9448L9.97677 20.9362L9.96587 20.9252L9.94637 20.9055L9.93058 20.8896L9.92711 20.8859L9.90761 20.8662L9.86872 20.8268L9.84935 20.8072L9.83845 20.7962L9.83008 20.7875L9.81068 20.7676L9.77157 20.7283Z" fill="url(#paint1_linear_2220_30)"/>
<path d="M41.3628 10.3751L38.2623 7.80892L46.7703 5.52417L43.4666 13.8064L41.3628 10.3751Z" fill="#2360A7"/>
<path d="M45.9263 5.74972L46.7703 5.52303L43.4666 13.8053L43.0099 13.0607L45.9263 5.74972Z" fill="#2360A7"/>
<path d="M73.7136 27.5H64.1136V7.4H73.3536C77.2836 7.4 79.6536 9.02 79.6536 12.41C79.6536 14.75 78.3336 16.34 75.7536 16.73V16.97C78.8136 17.36 80.3736 19.34 80.3736 21.98C80.3736 25.4 77.9436 27.5 73.7136 27.5ZM67.3536 10.31V15.74H73.0536C75.4836 15.74 76.4436 15.08 76.4436 13.04C76.4436 10.97 75.5736 10.31 73.1436 10.31H67.3536ZM67.3536 18.44V24.59H73.6236C76.0536 24.59 77.1036 23.9 77.1036 21.53C77.1036 19.13 76.0536 18.44 73.6236 18.44H67.3536ZM86.2773 27.5H83.0373V12.5H86.0073V14.87H86.1573C86.7573 13.49 88.1373 12.29 90.3273 12.29C93.4473 12.29 94.6473 14.57 94.6473 17.36V18.35H91.4073V17.75C91.4073 15.77 90.8373 15.05 88.9473 15.05C86.9973 15.05 86.2773 15.8 86.2773 17.78V27.5ZM103.349 27.8C98.4289 27.8 96.1189 24.68 96.1189 20.03C96.1189 15.41 98.8789 12.29 103.319 12.29C107.339 12.29 110.159 14.69 110.159 18.77C110.159 19.55 110.069 20.36 109.979 20.81H99.1489C99.2689 23.54 100.259 24.92 103.379 24.92C105.869 24.92 106.829 24.08 106.829 22.73V22.49H110.039V22.76C110.039 25.82 107.369 27.8 103.349 27.8ZM103.259 15.02C100.439 15.02 99.3589 16.34 99.1789 18.65H107.069C107.189 16.1 105.809 15.02 103.259 15.02ZM116.941 27.8C114.271 27.8 112.201 26.42 112.201 23.81C112.201 21.35 114.001 20.06 117.181 19.61L122.401 18.83V18.02C122.401 15.8 121.381 15.14 119.041 15.14C116.671 15.14 115.741 15.89 115.741 17.87V18.32H112.621V18.02C112.621 14.69 115.231 12.29 119.221 12.29C123.391 12.29 125.491 14.81 125.491 18.44V27.5H122.491V25.16H122.341C121.471 26.57 119.761 27.8 116.941 27.8ZM115.351 23.57C115.351 24.74 116.101 25.22 117.991 25.22C120.091 25.22 122.401 24.38 122.401 21.38V21.11L117.661 21.83C115.951 22.07 115.351 22.46 115.351 23.57ZM131.834 27.5H128.594V7.4H131.834V18.5H134.774L138.764 12.59H142.574L137.384 19.64L142.484 27.5H138.704L134.804 21.41H131.834V27.5ZM150.287 27.8C145.697 27.8 142.847 24.68 142.847 20.03C142.847 15.41 145.697 12.29 150.287 12.29C154.847 12.29 157.607 15.41 157.607 20.03C157.607 24.68 154.847 27.8 150.287 27.8ZM150.287 24.92C153.407 24.92 154.487 23.39 154.487 20.03C154.487 16.7 153.407 15.17 150.287 15.17C147.137 15.17 146.027 16.7 146.027 20.03C146.027 23.39 147.137 24.92 150.287 24.92ZM165.579 27.8C161.679 27.8 159.939 25.19 159.939 21.8V12.59H163.179V21.23C163.179 23.9 164.199 25.01 166.779 25.01C169.269 25.01 170.679 23.93 170.679 20.99V12.59H173.919V27.5H170.919V24.53H170.799C170.079 26.24 168.489 27.8 165.579 27.8ZM183.174 27.5C179.844 27.5 178.104 26.27 178.104 22.91V15.29H175.614V12.59H178.164L178.854 8.9H181.344V12.59H185.844V15.29H181.344V22.76C181.344 24.32 182.004 24.59 184.014 24.59H185.844V27.23C185.214 27.38 184.194 27.5 183.174 27.5ZM194.102 27.8C189.752 27.8 187.472 26.09 187.472 22.46V22.4H190.592V22.94C190.592 24.56 191.312 25.16 194.162 25.16C196.562 25.16 197.012 24.62 197.012 23.51C197.012 22.31 196.292 21.95 194.102 21.56L191.792 21.17C189.122 20.69 187.442 19.49 187.442 16.79C187.442 14.09 189.662 12.29 193.562 12.29C197.072 12.29 199.712 14.03 199.712 17.42V17.69H196.622V17.33C196.622 15.95 196.142 14.96 193.472 14.96C191.102 14.96 190.532 15.59 190.532 16.73C190.532 17.87 191.072 18.2 193.172 18.62L195.692 19.1C198.572 19.67 200.072 20.96 200.072 23.42C200.072 26.18 197.882 27.8 194.102 27.8ZM215 10.16C212.87 10.16 211.91 10.88 211.91 12.98C211.91 15.02 213.05 15.74 215.09 15.74H220.28V12.59H223.46V15.74H226.7V18.44H223.46V20.99C223.46 25.22 221.03 27.8 215.51 27.8C210.65 27.8 207.95 25.91 207.95 22.04C207.95 19.16 209.72 17.45 212.27 17.06V16.91C209.87 16.52 208.67 14.66 208.67 12.38C208.67 8.78 211.34 7.19 215.48 7.19H218.66V10.16H215ZM215.66 24.83C219.32 24.83 220.28 23.84 220.28 20.99V18.44H215.12C212.54 18.44 211.22 19.19 211.22 21.71C211.22 24.05 212.27 24.83 215.66 24.83ZM242.458 27.8C236.668 27.8 234.148 25.13 234.148 21.26V20.75H237.328V21.08C237.328 23.57 238.378 24.83 242.578 24.83C245.548 24.83 246.628 24.02 246.628 22.16C246.628 20.33 246.028 19.67 242.938 19.04L239.518 18.35C236.068 17.69 234.208 16.01 234.208 12.83C234.208 9.86 236.518 7.1 241.708 7.1C247.258 7.1 249.478 10.22 249.478 13.79V14.15H246.298V13.82C246.298 11.36 245.218 10.07 241.618 10.07C238.648 10.07 237.448 10.91 237.448 12.68C237.448 14.51 238.258 15.02 241.018 15.62L244.438 16.34C248.218 17.12 249.868 19.01 249.868 22.04C249.868 25.19 247.588 27.8 242.458 27.8ZM258.798 27.8C253.878 27.8 251.568 24.68 251.568 20.03C251.568 15.41 254.328 12.29 258.768 12.29C262.788 12.29 265.608 14.69 265.608 18.77C265.608 19.55 265.518 20.36 265.428 20.81H254.598C254.718 23.54 255.708 24.92 258.828 24.92C261.318 24.92 262.278 24.08 262.278 22.73V22.49H265.488V22.76C265.488 25.82 262.818 27.8 258.798 27.8ZM258.708 15.02C255.888 15.02 254.808 16.34 254.628 18.65H262.518C262.638 16.1 261.258 15.02 258.708 15.02ZM274.287 27.5C270.957 27.5 269.217 26.27 269.217 22.91V15.29H266.727V12.59H269.277L269.967 8.9H272.457V12.59H276.957V15.29H272.457V22.76C272.457 24.32 273.117 24.59 275.127 24.59H276.957V27.23C276.327 27.38 275.307 27.5 274.287 27.5ZM284.73 27.8C280.83 27.8 279.09 25.19 279.09 21.8V12.59H282.33V21.23C282.33 23.9 283.35 25.01 285.93 25.01C288.42 25.01 289.83 23.93 289.83 20.99V12.59H293.07V27.5H290.07V24.53H289.95C289.23 26.24 287.64 27.8 284.73 27.8ZM299.35 32.69H296.14V12.59H299.08V15.05H299.23C299.92 13.31 301.63 12.29 304.21 12.29C308.41 12.29 310.72 15.32 310.72 20.06C310.72 24.77 308.47 27.8 304.42 27.8C301.75 27.8 300.1 26.57 299.44 25.19H299.35V32.69ZM299.35 21.38C299.35 23.87 300.79 25.04 303.43 25.04C306.28 25.04 307.48 23.72 307.48 20.06C307.48 16.37 306.31 15.05 303.43 15.05C300.79 15.05 299.35 16.22 299.35 18.71V21.38ZM319.698 27.8C315.348 27.8 313.068 26.09 313.068 22.46V22.4H316.188V22.94C316.188 24.56 316.908 25.16 319.758 25.16C322.158 25.16 322.608 24.62 322.608 23.51C322.608 22.31 321.888 21.95 319.698 21.56L317.388 21.17C314.718 20.69 313.038 19.49 313.038 16.79C313.038 14.09 315.258 12.29 319.158 12.29C322.668 12.29 325.308 14.03 325.308 17.42V17.69H322.218V17.33C322.218 15.95 321.738 14.96 319.068 14.96C316.698 14.96 316.128 15.59 316.128 16.73C316.128 17.87 316.668 18.2 318.768 18.62L321.288 19.1C324.168 19.67 325.668 20.96 325.668 23.42C325.668 26.18 323.478 27.8 319.698 27.8Z" fill="url(#paint2_linear_2220_30)"/>
<defs>
<filter id="filter0_d_2220_30" x="0" y="0" width="39.8438" height="38" filterUnits="userSpaceOnUse" color-interpolation-filters="sRGB">
<feFlood flood-opacity="0" result="BackgroundImageFix"/>
<feColorMatrix in="SourceAlpha" type="matrix" values="0 0 0 0 0 0 0 0 0 0 0 0 0 0 0 0 0 0 127 0" result="hardAlpha"/>
<feOffset dy="3"/>
<feGaussianBlur stdDeviation="2"/>
<feComposite in2="hardAlpha" operator="out"/>
<feColorMatrix type="matrix" values="0 0 0 0 0.290196 0 0 0 0 0.564706 0 0 0 0 0.886275 0 0 0 0.5 0"/>
<feBlend mode="normal" in2="BackgroundImageFix" result="effect1_dropShadow_2220_30"/>
<feBlend mode="normal" in="SourceGraphic" in2="effect1_dropShadow_2220_30" result="shape"/>
</filter>
<linearGradient id="paint0_linear_2220_30" x1="19.9221" y1="1" x2="19.9221" y2="31" gradientUnits="userSpaceOnUse">
<stop stop-color="#4A90E2"/>
<stop offset="1" stop-color="#143862"/>
</linearGradient>
<linearGradient id="paint1_linear_2220_30" x1="43.2431" y1="8.79397" x2="9.17942" y2="29.0988" gradientUnits="userSpaceOnUse">
<stop stop-color="#2360A7"/>
<stop offset="1" stop-color="#94C5FF"/>
</linearGradient>
<linearGradient id="paint2_linear_2220_30" x1="62.4336" y1="4.5" x2="68.369" y2="60.325" gradientUnits="userSpaceOnUse">
<stop/>
<stop offset="1" stop-opacity="0.5"/>
</linearGradient>
</defs>
</svg>
